<svg width="11" height="12" viewBox="0 0 11 12" fill="none" xmlns="http://www.w3.org/2000/svg">
<path d="M5.83932 0.14866C5.75221 0.0539495 5.62912 0 5.50002 0C5.37092 0 5.24783 0.0539495 5.16073 0.14866L2.7087 2.81505C2.53737 3.00136 2.55039 3.29049 2.73778 3.46083C2.92518 3.63118 3.21599 3.61823 3.38732 3.43192L5.04027 1.63445V8.38008C5.04027 8.63252 5.24612 8.83718 5.50002 8.83718C5.75393 8.83718 5.95977 8.63252 5.95977 8.38008V1.63445L7.61274 3.43192C7.78407 3.61823 8.07488 3.63118 8.26227 3.46083C8.44967 3.29049 8.46266 3.00136 8.29133 2.81505L5.83932 0.14866Z" fill="black"/>
<path d="M0.846154 7.80618C0.846154 7.56215 0.65674 7.36432 0.423077 7.36432C0.18942 7.36432 2.95563e-07 7.56215 2.95563e-07 7.80618V7.83852C-1.09865e-05 8.64424 -2.23089e-05 9.29365 0.0657295 9.80444C0.133997 10.3347 0.280038 10.7812 0.619582 11.1358C0.959127 11.4905 1.38664 11.643 1.8944 11.7143C2.38346 11.7829 3.00528 11.7829 3.77674 11.7829H7.22328C7.99474 11.7829 8.61655 11.7829 9.10563 11.7143C9.61338 11.643 10.0409 11.4905 10.3804 11.1358C10.72 10.7812 10.866 10.3347 10.9343 9.80444C11 9.29365 11 8.64424 11 7.83852V7.80618C11 7.56215 10.8106 7.36432 10.5769 7.36432C10.3433 7.36432 10.1538 7.56215 10.1538 7.80618C10.1538 8.65184 10.1529 9.24163 10.0957 9.68667C10.04 10.119 9.93825 10.3479 9.7821 10.5109C9.62596 10.674 9.40681 10.7803 8.99287 10.8384C8.56674 10.8982 8.00202 10.8992 7.19231 10.8992H3.80769C2.99797 10.8992 2.43324 10.8982 2.00714 10.8384C1.59322 10.7803 1.37402 10.674 1.2179 10.5109C1.06178 10.3479 0.95999 10.119 0.904341 9.68667C0.847051 9.24163 0.846154 8.65184 0.846154 7.80618Z" fill="black"/>
</svg>
